<svg width="159" height="168" viewBox="0 0 159 168" fill="none" xmlns="http://www.w3.org/2000/svg">
  <rect width="10.849" height="99.143" transform="matrix(0.850422 -0.526101 0.474345 0.880339 15.6616 4.58301)" fill="url(#paint0_linear_1795_3392)"/>
  <rect width="10.849" height="99.143" transform="matrix(0.850422 -0.526101 0.474345 0.880339 39.7061 -10.292)" fill="url(#paint1_linear_1795_3392)"/>
  <rect width="17.4241" height="99.143" transform="matrix(0.850422 -0.526101 0.474345 0.880339 24.8877 -1.12549)" fill="url(#paint2_linear_1795_3392)"/>
  <rect width="10.849" height="99.143" transform="matrix(-0.850422 -0.526101 -0.474345 0.880339 152.28 4.58301)" fill="url(#paint3_linear_1795_3392)"/>
  <rect width="10.849" height="99.143" transform="matrix(-0.850422 -0.526101 -0.474345 0.880339 128.236 -10.292)" fill="url(#paint4_linear_1795_3392)"/>
  <rect width="17.4241" height="99.143" transform="matrix(-0.850422 -0.526101 -0.474345 0.880339 143.053 -1.12451)" fill="url(#paint5_linear_1795_3392)"/>
  <path d="M81.0801 125.562L107.376 125.562L81.0801 167.855L81.0801 125.562Z" fill="url(#paint6_linear_1795_3392)"/>
  <path d="M81.0795 125.562L54.7832 125.562L81.0795 167.855L81.0795 125.562Z" fill="url(#paint7_linear_1795_3392)"/>
  <path d="M64.9563 110.223L87.7296 123.371L43.8097 146.85L64.9563 110.223Z" fill="url(#paint8_linear_1795_3392)"/>
  <path d="M64.9561 110.223L42.1828 97.0751L43.8094 146.85L64.9561 110.223Z" fill="url(#paint9_linear_1795_3392)"/>
  <path d="M97.2785 110.222L74.5052 123.371L118.425 146.849L97.2785 110.222Z" fill="url(#paint10_linear_1795_3392)"/>
  <path d="M97.2788 110.223L120.052 97.0746L118.425 146.85L97.2788 110.223Z" fill="url(#paint11_linear_1795_3392)"/>
  <path d="M104.056 93.8972L85.4618 75.3028L133.962 63.9913L104.056 93.8972Z" fill="url(#paint12_linear_1795_3392)"/>
  <path d="M104.056 93.897L122.651 112.491L133.962 63.9911L104.056 93.897Z" fill="url(#paint13_linear_1795_3392)"/>
  <path d="M60.333 93.8581L78.9273 75.2638L30.4272 63.9522L60.333 93.8581Z" fill="url(#paint14_linear_1795_3392)"/>
  <path d="M60.3327 93.8579L41.7384 112.452L30.4268 63.9521L60.3327 93.8579Z" fill="url(#paint15_linear_1795_3392)"/>
  <path d="M21.2148 108.448H83.7261V127.012H30.8757L21.2148 108.448Z" fill="url(#paint16_linear_1795_3392)"/>
  <path d="M23.2988 112.426H85.8101L83.7264 127.012H30.876L23.2988 112.426Z" fill="url(#paint17_linear_1795_3392)"/>
  <path d="M11.7437 100.871H74.2549V119.435H21.4045L11.7437 100.871Z" fill="url(#paint18_linear_1795_3392)"/>
  <path d="M13.8271 104.848H76.3384L74.2547 119.434H21.4043L13.8271 104.848Z" fill="url(#paint19_linear_1795_3392)"/>
  <path d="M0 88.7471H62.5113V107.311H9.66083L0 88.7471Z" fill="url(#paint20_linear_1795_3392)"/>
  <path d="M2.0835 92.7251H64.5948L62.5111 107.311H9.66062L2.0835 92.7251Z" fill="url(#paint21_linear_1795_3392)"/>
  <path d="M141.123 108.448H78.6113V127.012H131.462L141.123 108.448Z" fill="url(#paint22_linear_1795_3392)"/>
  <path d="M139.039 112.426H76.5273L78.611 127.012H131.461L139.039 112.426Z" fill="url(#paint23_linear_1795_3392)"/>
  <path d="M150.594 100.871H88.0825V119.435H140.933L150.594 100.871Z" fill="url(#paint24_linear_1795_3392)"/>
  <path d="M148.51 104.849H85.999L88.0827 119.435H140.933L148.51 104.849Z" fill="url(#paint25_linear_1795_3392)"/>
  <path d="M162.338 88.7476H99.8271V107.312H152.678L162.338 88.7476Z" fill="url(#paint26_linear_1795_3392)"/>
  <path d="M160.255 92.7256H97.7436L99.8273 107.312H152.678L160.255 92.7256Z" fill="url(#paint27_linear_1795_3392)"/>
  <circle cx="82.2104" cy="98.0361" r="51.0054" fill="url(#paint28_linear_1795_3392)" stroke="url(#paint29_linear_1795_3392)" stroke-width="1.79583"/>
  <circle cx="82.2105" cy="98.0362" r="34.829" stroke="url(#paint30_linear_1795_3392)" stroke-width="4.48958"/>
  <g filter="url(#filter0_ii_1795_3392)">
    <circle cx="82.2105" cy="98.0357" r="32.9605" fill="url(#paint31_linear_1795_3392)"/>
  </g>
  <g filter="url(#filter1_d_1795_3392)">
    <path d="M78.8919 76.3095C80.2658 73.872 83.7758 73.872 85.1497 76.3095L89.9318 84.7938C90.4443 85.7032 91.3271 86.3445 92.3503 86.551L101.897 88.4772C104.64 89.0306 105.725 92.3689 103.831 94.4287L97.2396 101.599C96.5331 102.367 96.1959 103.405 96.3158 104.442L97.4339 114.117C97.7552 116.896 94.9155 118.959 92.3713 117.795L83.5155 113.742C82.5664 113.307 81.4752 113.307 80.5261 113.742L71.6703 117.795C69.1261 118.959 66.2864 116.896 66.6076 114.117L67.7258 104.442C67.8456 103.405 67.5084 102.367 66.802 101.599L60.2107 94.4287C58.317 92.3689 59.4017 89.0306 62.1444 88.4772L71.6913 86.551C72.7145 86.3445 73.5972 85.7032 74.1098 84.7938L78.8919 76.3095Z" fill="url(#paint32_angular_1795_3392)"/>
  </g>
  <defs>
    <filter id="filter0_ii_1795_3392" x="49.25" y="62.8304" width="65.9209" height="70.4105" filterUnits="userSpaceOnUse" color-interpolation-filters="sRGB">
      <feFlood flood-opacity="0" result="BackgroundImageFix"/>
      <feBlend mode="normal" in="SourceGraphic" in2="BackgroundImageFix" result="shape"/>
      <feColorMatrix in="SourceAlpha" type="matrix" values="0 0 0 0 0 0 0 0 0 0 0 0 0 0 0 0 0 0 127 0" result="hardAlpha"/>
      <feOffset dy="2.24479"/>
      <feGaussianBlur stdDeviation="4.48958"/>
      <feComposite in2="hardAlpha" operator="arithmetic" k2="-1" k3="1"/>
      <feColorMatrix type="matrix" values="0 0 0 0 1 0 0 0 0 0.24 0 0 0 0 0 0 0 0 1 0"/>
      <feBlend mode="normal" in2="shape" result="effect1_innerShadow_1795_3392"/>
      <feColorMatrix in="SourceAlpha" type="matrix" values="0 0 0 0 0 0 0 0 0 0 0 0 0 0 0 0 0 0 127 0" result="hardAlpha"/>
      <feOffset dy="-2.24479"/>
      <feGaussianBlur stdDeviation="4.48958"/>
      <feComposite in2="hardAlpha" operator="arithmetic" k2="-1" k3="1"/>
      <feColorMatrix type="matrix" values="0 0 0 0 0.9 0 0 0 0 0 0 0 0 0 0 0 0 0 1 0"/>
      <feBlend mode="normal" in2="effect1_innerShadow_1795_3392" result="effect2_innerShadow_1795_3392"/>
    </filter>
    <filter id="filter1_d_1795_3392" x="50.2811" y="69.9919" width="63.4798" height="61.6034" filterUnits="userSpaceOnUse" color-interpolation-filters="sRGB">
      <feFlood flood-opacity="0" result="BackgroundImageFix"/>
      <feColorMatrix in="SourceAlpha" type="matrix" values="0 0 0 0 0 0 0 0 0 0 0 0 0 0 0 0 0 0 127 0" result="hardAlpha"/>
      <feOffset dy="4.48958"/>
      <feGaussianBlur stdDeviation="4.48958"/>
      <feComposite in2="hardAlpha" operator="out"/>
      <feColorMatrix type="matrix" values="0 0 0 0 0.7125 0 0 0 0 0 0 0 0 0 0 0 0 0 0.55 0"/>
      <feBlend mode="normal" in2="BackgroundImageFix" result="effect1_dropShadow_1795_3392"/>
      <feBlend mode="normal" in="SourceGraphic" in2="effect1_dropShadow_1795_3392" result="shape"/>
    </filter>
    <linearGradient id="paint0_linear_1795_3392" x1="-0.31156" y1="41.4172" x2="11.2072" y2="41.3345" gradientUnits="userSpaceOnUse">
      <stop stop-color="#7D7D7D"/>
      <stop offset="0.9999" stop-color="#C4C4C4"/>
      <stop offset="1" stop-color="#FFD464"/>
      <stop offset="1" stop-color="#D9D9D9"/>
    </linearGradient>
    <linearGradient id="paint1_linear_1795_3392" x1="10.782" y1="47.5139" x2="-0.185547" y2="47.0059" gradientUnits="userSpaceOnUse">
      <stop stop-color="#7D7D7D"/>
      <stop offset="1" stop-color="#D9D9D9"/>
    </linearGradient>
    <linearGradient id="paint2_linear_1795_3392" x1="-1.216" y1="8.41325" x2="12.3969" y2="76.0499" gradientUnits="userSpaceOnUse">
      <stop stop-color="#F3F4F8"/>
      <stop offset="1" stop-color="white"/>
    </linearGradient>
    <linearGradient id="paint3_linear_1795_3392" x1="-0.31156" y1="41.4172" x2="11.2072" y2="41.3345" gradientUnits="userSpaceOnUse">
      <stop stop-color="#7D7D7D"/>
      <stop offset="0.9999" stop-color="#C4C4C4"/>
      <stop offset="1" stop-color="#FFD464"/>
      <stop offset="1" stop-color="#D9D9D9"/>
    </linearGradient>
    <linearGradient id="paint4_linear_1795_3392" x1="10.782" y1="47.5139" x2="-0.185547" y2="47.0059" gradientUnits="userSpaceOnUse">
      <stop stop-color="#7D7D7D"/>
      <stop offset="1" stop-color="#D9D9D9"/>
    </linearGradient>
    <linearGradient id="paint5_linear_1795_3392" x1="-1.216" y1="8.41325" x2="12.3969" y2="76.0499" gradientUnits="userSpaceOnUse">
      <stop stop-color="#F3F4F8"/>
      <stop offset="1" stop-color="white"/>
    </linearGradient>
    <linearGradient id="paint6_linear_1795_3392" x1="94.2283" y1="167.855" x2="94.2283" y2="125.562" gradientUnits="userSpaceOnUse">
      <stop stop-color="#C4C4C4"/>
      <stop offset="1" stop-color="#7D7D7D"/>
    </linearGradient>
    <linearGradient id="paint7_linear_1795_3392" x1="81.0795" y1="152.297" x2="75.6011" y2="162.158" gradientUnits="userSpaceOnUse">
      <stop stop-color="#C4C4C4"/>
      <stop offset="1" stop-color="#FBFAFF"/>
    </linearGradient>
    <linearGradient id="paint8_linear_1795_3392" x1="55.1964" y1="153.424" x2="76.343" y2="116.797" gradientUnits="userSpaceOnUse">
      <stop stop-color="#C4C4C4"/>
      <stop offset="1" stop-color="#7D7D7D"/>
    </linearGradient>
    <linearGradient id="paint9_linear_1795_3392" x1="43.8315" y1="123.584" x2="47.206" y2="140.967" gradientUnits="userSpaceOnUse">
      <stop stop-color="#D9D9D9"/>
      <stop offset="1" stop-color="#A9ABAD"/>
    </linearGradient>
    <linearGradient id="paint10_linear_1795_3392" x1="107.039" y1="153.423" x2="85.8919" y2="116.796" gradientUnits="userSpaceOnUse">
      <stop stop-color="#C4C4C4"/>
      <stop offset="1" stop-color="#7D7D7D"/>
    </linearGradient>
    <linearGradient id="paint11_linear_1795_3392" x1="118.403" y1="123.583" x2="115.029" y2="140.967" gradientUnits="userSpaceOnUse">
      <stop stop-color="#D9D9D9"/>
      <stop offset="1" stop-color="#A9ABAD"/>
    </linearGradient>
    <linearGradient id="paint12_linear_1795_3392" x1="134.11" y1="64.6421" x2="120.962" y2="67.0526" gradientUnits="userSpaceOnUse">
      <stop stop-color="#F5F5F5"/>
      <stop offset="1" stop-color="#7D7D7D"/>
    </linearGradient>
    <linearGradient id="paint13_linear_1795_3392" x1="130.166" y1="79.3241" x2="128.413" y2="69.2438" gradientUnits="userSpaceOnUse">
      <stop stop-color="#D9D9D9"/>
      <stop offset="1" stop-color="#7D7D7D"/>
    </linearGradient>
    <linearGradient id="paint14_linear_1795_3392" x1="40.1013" y1="64.6419" x2="37.6908" y2="73.1882" gradientUnits="userSpaceOnUse">
      <stop stop-color="#979797"/>
      <stop offset="1" stop-color="#A9ABAD"/>
    </linearGradient>
    <linearGradient id="paint15_linear_1795_3392" x1="36.47" y1="86.4202" x2="35.2304" y2="68.7556" gradientUnits="userSpaceOnUse">
      <stop stop-color="#D9D9D9"/>
      <stop offset="1" stop-color="#7D7D7D"/>
    </linearGradient>
    <linearGradient id="paint16_linear_1795_3392" x1="52.4705" y1="108.448" x2="52.4705" y2="127.012" gradientUnits="userSpaceOnUse">
      <stop stop-color="#979797"/>
      <stop offset="0.22481" stop-color="#D9D9D9"/>
    </linearGradient>
    <linearGradient id="paint17_linear_1795_3392" x1="52.4708" y1="116.783" x2="52.4708" y2="127.012" gradientUnits="userSpaceOnUse">
      <stop stop-color="#A9ABAD"/>
      <stop offset="1" stop-color="#979797"/>
    </linearGradient>
    <linearGradient id="paint18_linear_1795_3392" x1="42.9993" y1="100.871" x2="42.9993" y2="119.435" gradientUnits="userSpaceOnUse">
      <stop stop-color="#979797"/>
      <stop offset="0.22481" stop-color="#D9D9D9"/>
    </linearGradient>
    <linearGradient id="paint19_linear_1795_3392" x1="42.9991" y1="106.932" x2="42.9991" y2="119.434" gradientUnits="userSpaceOnUse">
      <stop stop-color="#C4C4C4"/>
      <stop offset="1" stop-color="#A9ABAD"/>
    </linearGradient>
    <linearGradient id="paint20_linear_1795_3392" x1="31.2556" y1="88.7471" x2="31.2556" y2="107.311" gradientUnits="userSpaceOnUse">
      <stop stop-color="#979797"/>
      <stop offset="0.22481" stop-color="#D9D9D9"/>
    </linearGradient>
    <linearGradient id="paint21_linear_1795_3392" x1="31.2554" y1="88.7471" x2="31.2554" y2="107.311" gradientUnits="userSpaceOnUse">
      <stop stop-color="#C4C4C4"/>
      <stop offset="1" stop-color="#A9ABAD"/>
    </linearGradient>
    <linearGradient id="paint22_linear_1795_3392" x1="109.867" y1="108.448" x2="109.867" y2="127.012" gradientUnits="userSpaceOnUse">
      <stop stop-color="#979797"/>
      <stop offset="0.22481" stop-color="#D9D9D9"/>
    </linearGradient>
    <linearGradient id="paint23_linear_1795_3392" x1="109.867" y1="116.783" x2="109.867" y2="127.012" gradientUnits="userSpaceOnUse">
      <stop stop-color="#A9ABAD"/>
      <stop offset="1" stop-color="#979797"/>
    </linearGradient>
    <linearGradient id="paint24_linear_1795_3392" x1="119.338" y1="100.871" x2="119.338" y2="119.435" gradientUnits="userSpaceOnUse">
      <stop stop-color="#979797"/>
      <stop offset="0.22481" stop-color="#D9D9D9"/>
    </linearGradient>
    <linearGradient id="paint25_linear_1795_3392" x1="119.338" y1="106.932" x2="119.338" y2="119.435" gradientUnits="userSpaceOnUse">
      <stop stop-color="#C4C4C4"/>
      <stop offset="1" stop-color="#A9ABAD"/>
    </linearGradient>
    <linearGradient id="paint26_linear_1795_3392" x1="131.083" y1="88.7476" x2="131.083" y2="107.312" gradientUnits="userSpaceOnUse">
      <stop stop-color="#979797"/>
      <stop offset="0.22481" stop-color="#D9D9D9"/>
    </linearGradient>
    <linearGradient id="paint27_linear_1795_3392" x1="131.083" y1="88.7476" x2="131.083" y2="107.312" gradientUnits="userSpaceOnUse">
      <stop stop-color="#C4C4C4"/>
      <stop offset="1" stop-color="#A9ABAD"/>
    </linearGradient>
    <linearGradient id="paint28_linear_1795_3392" x1="82.2104" y1="46.1328" x2="82.2104" y2="149.939" gradientUnits="userSpaceOnUse">
      <stop stop-color="#FFE587"/>
      <stop offset="0.0001" stop-color="#979797"/>
      <stop offset="0.484375" stop-color="#C4C4C4"/>
      <stop offset="1" stop-color="#7D7D7D"/>
    </linearGradient>
    <linearGradient id="paint29_linear_1795_3392" x1="82.2104" y1="46.1328" x2="82.2104" y2="149.939" gradientUnits="userSpaceOnUse">
      <stop stop-color="white"/>
      <stop offset="0.197072" stop-color="#FFEEC4" stop-opacity="0"/>
    </linearGradient>
    <linearGradient id="paint30_linear_1795_3392" x1="82.2105" y1="60.9624" x2="82.2105" y2="135.11" gradientUnits="userSpaceOnUse">
      <stop stop-color="#979797"/>
      <stop offset="0.9999" stop-color="#EDECFE"/>
      <stop offset="1" stop-color="#FFFBA2"/>
      <stop offset="1" stop-color="#F5F5F5"/>
    </linearGradient>
    <linearGradient id="paint31_linear_1795_3392" x1="82.2105" y1="65.0752" x2="82.2105" y2="130.996" gradientUnits="userSpaceOnUse">
      <stop stop-color="#5F6388"/>
      <stop offset="1" stop-color="#5F6388"/>
    </linearGradient>
    <radialGradient id="paint32_angular_1795_3392" cx="0" cy="0" r="1" gradientUnits="userSpaceOnUse" gradientTransform="translate(82.1289 98.2254) rotate(90.2256) scale(27.4673)">
      <stop stop-color="#979797"/>
      <stop offset="0.264583" stop-color="#979797"/>
      <stop offset="0.494792" stop-color="white"/>
      <stop offset="0.692708" stop-color="#F5F5F5"/>
      <stop offset="0.885417" stop-color="#A9ABAD"/>
      <stop offset="1" stop-color="white"/>
    </radialGradient>
  </defs>
</svg>
